name D:\PhD\Datasets\SharingData_IBEC_VALDUCE\MO1_Healthy_0001.mot
datacolumns 46
datarows 6
range 0.01000000 0.06000000
endheader
                time	         pelvis_tilt	     pelvis_rotation	           pelvis_tx	           pelvis_ty	           pelvis_tz	       hip_flexion_r	     hip_adduction_r	      hip_rotation_r	        knee_angle_r	       ankle_angle_r	    subtalar_angle_r	         mtp_angle_r	       hip_flexion_l	     hip_adduction_l	      hip_rotation_l	        knee_angle_l	       ankle_angle_l	    subtalar_angle_l	         mtp_angle_l	    lumbar_extension	      lumbar_bending	     lumbar_rotation	          arm_flex_r	           arm_add_r	           arm_rot_r	        elbow_flex_r	           pro_sup_r	        wrist_flex_r	         wrist_dev_r	          arm_flex_l	           arm_add_l	           arm_rot_l	        elbow_flex_l	           pro_sup_l	        wrist_flex_l	         wrist_dev_l	          end_eff_tx	          end_eff_ty	          end_eff_tz	             goal_tx	             goal_ty	             goal_tz	            elbow_tx	            elbow_ty	            elbow_tz	
          0.01000000	          0.00000000	          0.00000000	        335.86814690	        506.91114440	        381.93907573	          0.00000000	          0.00000000	          0.00000000	          0.00000000	          0.00000000	          0.00000000	          0.00000000	          0.00000000	          0.00000000	          0.00000000	          0.00000000	          0.00000000	          0.00000000	          0.00000000	         -1.95620179	          6.24434853	         -3.36889315	         14.60916138	        -29.23896790	         27.75654984	         45.48414993	        107.65934753	          0.00000000	          0.00000000	          0.00000000	          0.00000000	          0.00000000	          0.00000000	          0.00000000	          0.00000000	          0.00000000	        577.77550906	        120.66418563	        532.15321123	        868.88109769	        671.81772154	       -165.33504160	        240.27898157	        311.98990155	        673.19855776	
          0.02000000	          0.00000000	          0.00000000	        335.90327807	        506.91250688	        381.94494085	          0.00000000	          0.00000000	          0.00000000	          0.00000000	          0.00000000	          0.00000000	          0.00000000	          0.00000000	          0.00000000	          0.00000000	          0.00000000	          0.00000000	          0.00000000	          0.00000000	         -1.96206343	          6.26538944	         -3.38472652	         14.63167286	        -29.24304199	         27.78007889	         45.47689819	        107.65660858	          0.00000000	          0.00000000	          0.00000000	          0.00000000	          0.00000000	          0.00000000	          0.00000000	          0.00000000	          0.00000000	        577.78637447	        120.65744854	        532.16764652	        868.86618051	        671.81333108	       -165.33998392	        240.29746887	        311.99466242	        673.20228681	
          0.03000000	          0.00000000	          0.00000000	        335.96207281	        506.91172327	        381.94316924	          0.00000000	          0.00000000	          0.00000000	          0.00000000	          0.00000000	          0.00000000	          0.00000000	          0.00000000	          0.00000000	          0.00000000	          0.00000000	          0.00000000	          0.00000000	          0.00000000	         -1.98896205	          6.26150751	         -3.39214373	         14.66405296	        -29.24728394	         27.79544449	         45.47610855	        107.64824677	          0.00000000	          0.00000000	          0.00000000	          0.00000000	          0.00000000	          0.00000000	          0.00000000	          0.00000000	          0.00000000	        577.80728700	        120.66009954	        532.15042211	        868.87590291	        671.82361552	       -165.32108006	        240.35767702	        311.98740896	        673.21184493	
          0.04000000	          0.00000000	          0.00000000	        336.03579336	        506.92188034	        381.93144071	          0.00000000	          0.00000000	          0.00000000	          0.00000000	          0.00000000	          0.00000000	          0.00000000	          0.00000000	          0.00000000	          0.00000000	          0.00000000	          0.00000000	          0.00000000	          0.00000000	         -2.09638095	          6.26602888	         -3.38860703	         14.80592060	        -29.29023933	         27.81148529	         45.72301483	        106.37365723	          0.00000000	          0.00000000	          0.00000000	          0.00000000	          0.00000000	          0.00000000	          0.00000000	          0.00000000	          0.00000000	        577.69945282	        122.26854311	        531.70576553	        868.86815593	        671.82564110	       -165.33298058	        240.36615009	        312.04166609	        673.24228054	
          0.05000000	          0.00000000	          0.00000000	        336.14052355	        506.95326330	        381.94130748	          0.00000000	          0.00000000	          0.00000000	          0.00000000	          0.00000000	          0.00000000	          0.00000000	          0.00000000	          0.00000000	          0.00000000	          0.00000000	          0.00000000	          0.00000000	          0.00000000	         -2.10586357	          6.25305319	         -3.35920978	         14.81626892	        -29.28332329	         27.78676605	         45.68868256	        106.38381958	          0.00000000	          0.00000000	          0.00000000	          0.00000000	          0.00000000	          0.00000000	          0.00000000	          0.00000000	          0.00000000	        577.69171647	        122.21863732	        531.70008284	        868.87348869	        671.83242348	       -165.34283873	        240.35586299	        312.00437110	        673.24192923	
          0.06000000	          0.00000000	          0.00000000	        335.85199108	        506.71607859	        381.88929212	          0.00000000	          0.00000000	          0.00000000	          0.00000000	          0.00000000	          0.00000000	          0.00000000	          0.00000000	          0.00000000	          0.00000000	          0.00000000	          0.00000000	          0.00000000	          0.00000000	         -2.26903081	          6.46393824	         -3.59366870	         15.12688541	        -29.39052582	         27.99379921	         45.65257263	        107.64028931	          0.00000000	          0.00000000	          0.00000000	          0.00000000	          0.00000000	          0.00000000	          0.00000000	          0.00000000	          0.00000000	        577.73627068	        120.86131463	        532.46980333	        868.99310777	        671.86175377	       -165.64206342	        241.09036672	        311.59791167	        672.27284710	
